# Created using SwiftConverter

# Vertex Array
v 6615.511 307.070 -3355.472
v 6362.985 225.684 -3300.253
v 6419.630 318.219 -3354.817
v 6361.932 226.394 -3300.267
v 6362.682 501.704 -3355.444
v 6416.829 320.307 -3354.719
v 6615.868 304.715 -3355.469
v 6463.050 187.888 -3354.782
v 6363.483 224.504 -3300.314
v 6461.975 184.576 -3354.733
v 6521.457 3.011 -3355.451
v 6363.199 223.014 -3300.364
v 6519.754 1.716 -3355.451
v 6367.648 115.032 -3354.736
v 6362.113 222.325 -3300.373
v 6364.174 115.032 -3354.780
v 6203.036 0.910 -3355.460
v 6360.714 222.477 -3300.313
v 6201.653 2.706 -3355.432
v 6261.396 184.587 -3354.725
v 6359.780 223.255 -3299.755
v 6260.321 187.895 -3354.777
v 6107.508 304.693 -3355.468
v 6359.510 224.401 -3299.728
v 6107.837 307.056 -3355.472
v 6303.731 318.218 -3354.816
v 6359.802 225.680 -3300.250
v 6306.534 320.302 -3354.711
v 6360.624 501.625 -3355.435
v 6360.688 226.506 -3300.354
v 6419.620 318.681 -3355.818
v 6615.657 307.272 -3355.818
v 6417.813 318.777 -3354.899
v 6362.596 226.116 -3299.764
v 6417.230 320.557 -3355.818
v 6362.826 501.861 -3355.818
v 6363.377 225.057 -3299.743
v 6616.060 306.063 -3355.140
v 6363.395 223.784 -3299.905
v 6461.893 186.410 -3354.890
v 6362.694 222.594 -3299.849
v 6520.792 2.093 -3355.106
v 6361.420 222.378 -3299.871
v 6365.930 115.687 -3354.893
v 6360.226 222.821 -3300.185
v 6202.188 1.456 -3355.115
v 6359.553 223.884 -3299.764
v 6261.479 186.419 -3354.884
v 6359.535 225.162 -3299.699
v 6106.695 306.131 -3355.313
v 6360.201 226.074 -3299.747
v 6305.550 318.775 -3354.896
v 6361.297 226.452 -3300.174
v 6361.658 501.972 -3355.094
v 6360.472 501.786 -3355.818
v 6305.576 320.714 -3355.818
v 6301.472 319.096 -3355.818
v 6107.685 307.258 -3355.818
v 6107.305 304.598 -3355.818
v 6258.995 187.625 -3355.818
v 6260.325 184.557 -3355.818
v 6201.418 2.668 -3355.818
v 6203.035 0.654 -3355.818
v 6364.480 114.352 -3355.818
v 6367.480 114.320 -3355.818
v 6519.727 1.501 -3355.818
v 6521.667 2.967 -3355.818
v 6462.442 184.432 -3355.818
v 6463.338 187.312 -3355.818
v 6616.072 304.619 -3355.818
v 6418.005 319.170 -3355.818
v 6361.369 224.543 -3299.936
v 6361.638 503.765 -3355.818
v 6304.195 319.379 -3355.818
v 6105.683 306.518 -3355.818
v 6260.501 186.090 -3355.818
v 6201.189 0.000 -3355.818
v 6366.009 114.961 -3355.818
v 6521.937 0.753 -3355.818
v 6462.295 186.030 -3355.818
v 6617.683 306.533 -3355.818
v 6615.511 307.070 -3356.164
v 6419.630 318.219 -3356.820
v 6362.985 225.684 -3411.384
v 6361.932 226.394 -3411.370
v 6416.829 320.307 -3356.918
v 6362.682 501.704 -3356.192
v 6615.868 304.715 -3356.168
v 6363.483 224.504 -3411.323
v 6463.050 187.888 -3356.854
v 6461.975 184.576 -3356.904
v 6363.199 223.014 -3411.273
v 6521.457 3.011 -3356.186
v 6519.754 1.716 -3356.185
v 6362.113 222.325 -3411.264
v 6367.648 115.032 -3356.901
v 6364.174 115.032 -3356.857
v 6360.714 222.477 -3411.324
v 6203.036 0.910 -3356.177
v 6201.653 2.706 -3356.205
v 6359.780 223.255 -3411.882
v 6261.396 184.587 -3356.911
v 6260.321 187.895 -3356.859
v 6359.510 224.401 -3411.908
v 6107.508 304.693 -3356.169
v 6107.837 307.056 -3356.165
v 6359.802 225.680 -3411.386
v 6303.731 318.218 -3356.821
v 6306.534 320.302 -3356.926
v 6360.688 226.506 -3411.283
v 6360.624 501.625 -3356.202
v 6362.596 226.116 -3411.873
v 6417.813 318.777 -3356.738
v 6616.060 306.063 -3356.497
v 6363.377 225.057 -3411.894
v 6461.893 186.410 -3356.747
v 6363.395 223.784 -3411.732
v 6520.792 2.093 -3356.531
v 6362.694 222.594 -3411.788
v 6365.930 115.687 -3356.744
v 6361.420 222.378 -3411.766
v 6202.188 1.456 -3356.521
v 6360.226 222.821 -3411.452
v 6261.479 186.419 -3356.753
v 6359.553 223.884 -3411.873
v 6106.695 306.131 -3356.323
v 6359.535 225.162 -3411.938
v 6305.550 318.775 -3356.741
v 6360.201 226.074 -3411.890
v 6361.658 501.972 -3356.543
v 6361.297 226.452 -3411.463
v 6361.369 224.543 -3411.701

# Normal Array
vn -0.031 -0.494 -0.869
vn -0.539 -0.164 -0.826
vn -0.317 0.410 -0.855
vn -0.525 -0.169 -0.834
vn 0.324 0.441 -0.837
vn -0.297 0.424 -0.856
vn 0.531 -0.171 -0.830
vn 0.320 0.414 -0.852
vn 0.031 -0.494 -0.869
vn 0.542 -0.165 -0.824
vn -0.053 -0.907 -0.418
vn -0.050 -0.853 -0.520
vn -0.487 -0.214 -0.847
vn 0.305 -0.605 -0.736
vn -0.101 -0.459 -0.883
vn -0.755 0.061 -0.653
vn -0.885 -0.266 -0.383
vn -0.861 -0.258 -0.438
vn -0.354 0.638 -0.684
vn -0.286 0.265 -0.921
vn 0.028 -0.620 -0.784
vn -0.090 -0.356 -0.930
vn -0.244 0.541 -0.805
vn -0.508 -0.096 -0.856
vn -0.546 -0.362 -0.755
vn -0.356 0.342 -0.870
vn 0.439 0.502 -0.745
vn 0.176 0.355 -0.918
vn -0.593 -0.233 -0.771
vn -0.398 -0.056 -0.916
vn 0.526 0.407 -0.747
vn -0.219 0.436 -0.873
vn -0.529 0.362 -0.768
vn 0.250 0.452 -0.856
vn -0.349 0.453 -0.821
vn 0.403 -0.059 -0.913
vn -0.056 0.279 -0.959
vn -0.157 0.342 -0.927
vn 0.459 0.098 -0.883
vn 0.356 0.342 -0.869
vn 0.438 0.146 -0.887
vn 0.516 -0.097 -0.851
vn -0.073 -0.709 -0.702
vn 0.111 -0.300 -0.948
vn 0.225 0.030 -0.974
vn 0.286 0.261 -0.922
vn -0.335 -0.620 -0.710
vn 0.486 -0.211 -0.848
vn 0.754 0.072 -0.653
vn 0.103 -0.463 -0.880
vn -0.159 -0.193 -0.968
vn -0.361 -0.182 -0.915
vn 0.262 -0.189 -0.946
vn 0.363 -0.183 -0.914
vn 0.857 -0.257 -0.447
vn 0.699 -0.212 -0.683
vn 0.042 -0.702 -0.710
vn 0.052 -0.852 -0.521
vn 0.529 0.690 -0.494
vn 0.435 0.565 -0.701
vn 0.699 -0.227 -0.679
vn 0.834 -0.270 -0.480
vn -0.498 0.706 -0.503
vn -0.471 0.668 -0.576
vn 0.506 0.682 -0.528
vn 0.529 0.714 -0.458
vn -0.848 -0.276 -0.453
vn -0.892 -0.291 -0.346
vn -0.520 0.677 -0.521
vn -0.528 0.688 -0.498
vn -0.252 -0.880 -0.404
vn -0.262 -0.866 -0.425
vn -0.793 -0.464 -0.395
vn -0.813 -0.454 -0.364
vn -0.465 0.446 -0.764
vn -0.113 0.703 -0.702
vn 0.188 0.467 -0.864
vn 0.541 0.334 -0.772
vn 0.530 -0.013 -0.848
vn -0.411 0.392 -0.823
vn -0.115 0.058 -0.992
vn -0.302 -0.617 -0.727
vn -0.587 -0.358 -0.726
vn -0.155 -0.128 -0.980
vn -0.371 -0.797 -0.476
vn -0.521 -0.325 -0.790
vn 0.418 -0.768 -0.486
vn 0.531 -0.312 -0.788
vn 0.648 -0.334 -0.685
vn 0.387 -0.400 -0.831
vn 0.139 -0.569 -0.811
vn 0.081 -0.776 -0.626
vn 0.457 -0.666 -0.590
vn 0.200 -0.542 -0.816
vn 0.709 0.459 -0.535
vn 0.530 0.448 -0.719
vn 0.496 0.443 -0.747
vn 0.506 0.497 -0.705
vn 0.712 -0.093 -0.696
vn 0.703 -0.081 -0.707
vn 0.824 0.221 -0.522
vn 0.626 -0.054 -0.778
vn 0.276 0.781 -0.560
vn -0.187 0.528 -0.828
vn -0.317 0.748 -0.583
vn -0.295 0.740 -0.605
vn 0.340 0.760 -0.554
vn 0.330 0.756 -0.565
vn -0.148 0.858 -0.492
vn 0.199 0.587 -0.785
vn -0.782 0.381 -0.494
vn -0.586 -0.071 -0.807
vn -0.919 -0.074 -0.386
vn -0.927 -0.086 -0.366
vn -0.666 0.558 -0.496
vn -0.667 0.543 -0.511
vn -0.806 0.246 -0.539
vn -0.448 0.377 -0.811
vn -0.624 -0.530 -0.574
vn -0.193 -0.528 -0.827
vn 0.272 -0.109 -0.956
vn 0.484 0.461 -0.743
vn -0.114 0.042 -0.993
vn -0.079 -0.042 -0.996
vn -0.107 0.211 -0.972
vn -0.588 -0.038 -0.808
vn -0.494 -0.371 -0.786
vn -0.164 -0.472 -0.866
vn 0.214 -0.532 -0.819
vn 0.495 -0.297 -0.817
vn -0.031 -0.494 0.869
vn -0.539 -0.164 0.826
vn -0.317 0.410 0.855
vn -0.525 -0.169 0.834
vn 0.324 0.441 0.837
vn -0.297 0.424 0.856
vn 0.531 -0.171 0.830
vn 0.320 0.414 0.852
vn 0.031 -0.494 0.869
vn 0.542 -0.165 0.824
vn -0.050 -0.853 0.520
vn -0.053 -0.907 0.418
vn 0.305 -0.605 0.736
vn -0.487 -0.214 0.847
vn -0.755 0.061 0.653
vn -0.101 -0.459 0.883
vn -0.861 -0.258 0.438
vn -0.885 -0.266 0.383
vn -0.286 0.265 0.921
vn -0.354 0.638 0.684
vn -0.090 -0.356 0.930
vn 0.028 -0.620 0.784
vn -0.508 -0.096 0.856
vn -0.244 0.541 0.805
vn -0.356 0.342 0.870
vn -0.546 -0.362 0.755
vn 0.176 0.355 0.918
vn 0.439 0.502 0.745
vn -0.398 -0.056 0.916
vn -0.593 -0.233 0.771
vn -0.219 0.436 0.873
vn 0.526 0.407 0.747
vn 0.250 0.452 0.856
vn -0.529 0.362 0.768
vn 0.403 -0.059 0.913
vn -0.349 0.453 0.821
vn -0.157 0.342 0.927
vn -0.056 0.279 0.959
vn 0.356 0.342 0.869
vn 0.459 0.098 0.883
vn 0.516 -0.097 0.851
vn 0.438 0.146 0.887
vn 0.111 -0.300 0.948
vn -0.073 -0.709 0.702
vn 0.286 0.261 0.922
vn 0.225 0.030 0.974
vn 0.486 -0.211 0.848
vn -0.335 -0.620 0.710
vn 0.103 -0.463 0.880
vn 0.754 0.072 0.653
vn -0.361 -0.182 0.915
vn -0.159 -0.193 0.968
vn 0.363 -0.183 0.914
vn 0.262 -0.189 0.946
vn 0.699 -0.212 0.683
vn 0.857 -0.257 0.447
vn 0.052 -0.852 0.521
vn 0.042 -0.702 0.710
vn 0.435 0.565 0.701
vn 0.529 0.690 0.494
vn 0.834 -0.270 0.480
vn 0.699 -0.227 0.679
vn -0.471 0.668 0.576
vn -0.498 0.706 0.503
vn 0.529 0.714 0.458
vn 0.506 0.682 0.528
vn -0.892 -0.291 0.346
vn -0.848 -0.276 0.453
vn -0.528 0.688 0.498
vn -0.520 0.677 0.521
vn -0.262 -0.866 0.425
vn -0.252 -0.880 0.404
vn -0.813 -0.454 0.364
vn -0.793 -0.464 0.395
vn -0.465 0.446 0.764
vn -0.113 0.703 0.702
vn 0.188 0.467 0.864
vn 0.541 0.334 0.772
vn 0.530 -0.013 0.848
vn -0.411 0.392 0.823
vn -0.115 0.058 0.992
vn -0.302 -0.617 0.727
vn -0.587 -0.358 0.726
vn -0.155 -0.128 0.980
vn -0.521 -0.325 0.790
vn -0.371 -0.797 0.476
vn 0.531 -0.312 0.788
vn 0.418 -0.768 0.486
vn 0.387 -0.400 0.831
vn 0.648 -0.334 0.685
vn 0.081 -0.776 0.626
vn 0.139 -0.569 0.811
vn 0.200 -0.542 0.816
vn 0.457 -0.666 0.590
vn 0.530 0.448 0.719
vn 0.709 0.459 0.535
vn 0.506 0.497 0.705
vn 0.496 0.443 0.747
vn 0.703 -0.081 0.707
vn 0.712 -0.093 0.696
vn 0.626 -0.054 0.778
vn 0.824 0.221 0.522
vn -0.187 0.528 0.828
vn 0.276 0.782 0.559
vn -0.295 0.740 0.605
vn -0.317 0.748 0.583
vn 0.330 0.756 0.565
vn 0.340 0.760 0.554
vn 0.199 0.587 0.785
vn -0.148 0.858 0.492
vn -0.586 -0.071 0.807
vn -0.782 0.381 0.494
vn -0.927 -0.086 0.366
vn -0.919 -0.074 0.386
vn -0.667 0.543 0.511
vn -0.666 0.558 0.496
vn -0.448 0.377 0.811
vn -0.806 0.246 0.538
vn -0.193 -0.528 0.827
vn -0.624 -0.530 0.574
vn 0.272 -0.109 0.956
vn 0.484 0.461 0.743
vn -0.114 0.042 0.993
vn -0.079 -0.042 0.996
vn -0.107 0.211 0.972
vn -0.588 -0.038 0.808
vn -0.494 -0.371 0.786
vn -0.164 -0.472 0.866
vn 0.215 -0.532 0.819
vn 0.495 -0.297 0.817

# Facets
f 1//1 2//1 3//1
f 4//2 5//2 6//2
f 7//3 8//3 9//3
f 10//4 11//4 12//4
f 13//5 14//5 15//5
f 16//6 17//6 18//6
f 19//7 20//7 21//7
f 22//8 23//8 24//8
f 25//9 26//9 27//9
f 28//10 29//10 30//10
f 3//11 31//11 32//11
f 32//12 1//12 3//12
f 6//13 33//13 34//13
f 34//14 4//14 6//14
f 33//15 3//15 2//15
f 2//16 34//16 33//16
f 35//17 6//17 5//17
f 5//18 36//18 35//18
f 9//19 37//19 38//19
f 38//20 7//20 9//20
f 37//21 2//21 1//21
f 1//22 38//22 37//22
f 12//23 39//23 40//23
f 40//24 10//24 12//24
f 39//25 9//25 8//25
f 8//26 40//26 39//26
f 15//27 41//27 42//27
f 42//28 13//28 15//28
f 41//29 12//29 11//29
f 11//30 42//30 41//30
f 18//31 43//31 44//31
f 44//32 16//32 18//32
f 43//33 15//33 14//33
f 14//34 44//34 43//34
f 21//35 45//35 46//35
f 46//36 19//36 21//36
f 45//37 18//37 17//37
f 17//38 46//38 45//38
f 24//39 47//39 48//39
f 48//40 22//40 24//40
f 47//41 21//41 20//41
f 20//42 48//42 47//42
f 27//43 49//43 50//43
f 50//44 25//44 27//44
f 49//45 24//45 23//45
f 23//46 50//46 49//46
f 30//47 51//47 52//47
f 52//48 28//48 30//48
f 51//49 27//49 26//49
f 26//50 52//50 51//50
f 4//51 53//51 54//51
f 54//52 5//52 4//52
f 53//53 30//53 29//53
f 29//54 54//54 53//54
f 55//55 29//55 28//55
f 28//56 56//56 55//56
f 57//57 26//57 25//57
f 25//58 58//58 57//58
f 59//59 23//59 22//59
f 22//60 60//60 59//60
f 61//61 20//61 19//61
f 19//62 62//62 61//62
f 63//63 17//63 16//63
f 16//64 64//64 63//64
f 65//65 14//65 13//65
f 13//66 66//66 65//66
f 67//67 11//67 10//67
f 10//68 68//68 67//68
f 69//69 8//69 7//69
f 7//70 70//70 69//70
f 31//71 3//71 33//71
f 33//72 71//72 31//72
f 33//73 6//73 35//73
f 35//74 71//74 33//74
f 34//75 2//75 72//75
f 37//76 9//76 72//76
f 39//77 12//77 72//77
f 41//78 15//78 72//78
f 43//79 18//79 72//79
f 45//80 21//80 72//80
f 47//81 24//81 72//81
f 49//82 27//82 72//82
f 51//83 30//83 72//83
f 53//84 4//84 72//84
f 36//85 5//85 54//85
f 54//86 73//86 36//86
f 54//87 29//87 55//87
f 55//88 73//88 54//88
f 56//89 28//89 52//89
f 52//90 74//90 56//90
f 52//91 26//91 57//91
f 57//92 74//92 52//92
f 58//93 25//93 50//93
f 50//94 75//94 58//94
f 50//95 23//95 59//95
f 59//96 75//96 50//96
f 60//97 22//97 48//97
f 48//98 76//98 60//98
f 48//99 20//99 61//99
f 61//100 76//100 48//100
f 62//101 19//101 46//101
f 46//102 77//102 62//102
f 46//103 17//103 63//103
f 63//104 77//104 46//104
f 64//105 16//105 44//105
f 44//106 78//106 64//106
f 44//107 14//107 65//107
f 65//108 78//108 44//108
f 66//109 13//109 42//109
f 42//110 79//110 66//110
f 42//111 11//111 67//111
f 67//112 79//112 42//112
f 68//113 10//113 40//113
f 40//114 80//114 68//114
f 40//115 8//115 69//115
f 69//116 80//116 40//116
f 70//117 7//117 38//117
f 38//118 81//118 70//118
f 38//119 1//119 32//119
f 32//120 81//120 38//120
f 72//121 30//121 53//121
f 72//122 27//122 51//122
f 72//123 24//123 49//123
f 72//124 21//124 47//124
f 72//125 18//125 45//125
f 72//126 15//126 43//126
f 72//127 12//127 41//127
f 72//128 9//128 39//128
f 72//129 2//129 37//129
f 72//130 4//130 34//130
f 82//131 83//131 84//131
f 85//132 86//132 87//132
f 88//133 89//133 90//133
f 91//134 92//134 93//134
f 94//135 95//135 96//135
f 97//136 98//136 99//136
f 100//137 101//137 102//137
f 103//138 104//138 105//138
f 106//139 107//139 108//139
f 109//140 110//140 111//140
f 83//141 82//141 32//141
f 32//142 31//142 83//142
f 86//143 85//143 112//143
f 112//144 113//144 86//144
f 113//145 112//145 84//145
f 84//146 83//146 113//146
f 35//147 36//147 87//147
f 87//148 86//148 35//148
f 89//149 88//149 114//149
f 114//150 115//150 89//150
f 115//151 114//151 82//151
f 82//152 84//152 115//152
f 92//153 91//153 116//153
f 116//154 117//154 92//154
f 117//155 116//155 90//155
f 90//156 89//156 117//156
f 95//157 94//157 118//157
f 118//158 119//158 95//158
f 119//159 118//159 93//159
f 93//160 92//160 119//160
f 98//161 97//161 120//161
f 120//162 121//162 98//162
f 121//163 120//163 96//163
f 96//164 95//164 121//164
f 101//165 100//165 122//165
f 122//166 123//166 101//166
f 123//167 122//167 99//167
f 99//168 98//168 123//168
f 104//169 103//169 124//169
f 124//170 125//170 104//170
f 125//171 124//171 102//171
f 102//172 101//172 125//172
f 107//173 106//173 126//173
f 126//174 127//174 107//174
f 127//175 126//175 105//175
f 105//176 104//176 127//176
f 110//177 109//177 128//177
f 128//178 129//178 110//178
f 129//179 128//179 108//179
f 108//180 107//180 129//180
f 85//181 87//181 130//181
f 130//182 131//182 85//182
f 131//183 130//183 111//183
f 111//184 110//184 131//184
f 55//185 56//185 109//185
f 109//186 111//186 55//186
f 57//187 58//187 106//187
f 106//188 108//188 57//188
f 59//189 60//189 103//189
f 103//190 105//190 59//190
f 61//191 62//191 100//191
f 100//192 102//192 61//192
f 63//193 64//193 97//193
f 97//194 99//194 63//194
f 65//195 66//195 94//195
f 94//196 96//196 65//196
f 67//197 68//197 91//197
f 91//198 93//198 67//198
f 69//199 70//199 88//199
f 88//200 90//200 69//200
f 31//201 71//201 113//201
f 113//202 83//202 31//202
f 113//203 71//203 35//203
f 35//204 86//204 113//204
f 112//205 132//205 84//205
f 115//206 132//206 89//206
f 117//207 132//207 92//207
f 119//208 132//208 95//208
f 121//209 132//209 98//209
f 123//210 132//210 101//210
f 125//211 132//211 104//211
f 127//212 132//212 107//212
f 129//213 132//213 110//213
f 131//214 132//214 85//214
f 36//215 73//215 130//215
f 130//216 87//216 36//216
f 130//217 73//217 55//217
f 55//218 111//218 130//218
f 56//219 74//219 128//219
f 128//220 109//220 56//220
f 128//221 74//221 57//221
f 57//222 108//222 128//222
f 58//223 75//223 126//223
f 126//224 106//224 58//224
f 126//225 75//225 59//225
f 59//226 105//226 126//226
f 60//227 76//227 124//227
f 124//228 103//228 60//228
f 124//229 76//229 61//229
f 61//230 102//230 124//230
f 62//231 77//231 122//231
f 122//232 100//232 62//232
f 122//233 77//233 63//233
f 63//234 99//234 122//234
f 64//235 78//235 120//235
f 120//236 97//236 64//236
f 120//237 78//237 65//237
f 65//238 96//238 120//238
f 66//239 79//239 118//239
f 118//240 94//240 66//240
f 118//241 79//241 67//241
f 67//242 93//242 118//242
f 68//243 80//243 116//243
f 116//244 91//244 68//244
f 116//245 80//245 69//245
f 69//246 90//246 116//246
f 70//247 81//247 114//247
f 114//248 88//248 70//248
f 114//249 81//249 32//249
f 32//250 82//250 114//250
f 132//251 131//251 110//251
f 132//252 129//252 107//252
f 132//253 127//253 104//253
f 132//254 125//254 101//254
f 132//255 123//255 98//255
f 132//256 121//256 95//256
f 132//257 119//257 92//257
f 132//258 117//258 89//258
f 132//259 115//259 84//259
f 132//260 112//260 85//260

# Thank you for using SwiftConverter

