<svg xmlns="http://www.w3.org/2000/svg" xmlns:xlink="http://www.w3.org/1999/xlink" version="1.1" x="0px" y="0px" viewBox="0 0 100 125" enable-background="new 0 0 100 100" xml:space="preserve"><g><path d="M50,98.6c16.3,0,30.8-8,39.7-20.3c-7.8-5.7-15.3-10-19.6-12.2h0c-3,3.6-7,6.8-12.2,8.7c-2.5,0.9-5.2,1.4-7.9,1.4   c-2.7,0-5.3-0.4-7.8-1.3c-5.2-1.8-9.3-5-12.3-8.7c-4.3,2.3-11.8,6.5-19.6,12.2C19.2,90.6,33.7,98.6,50,98.6z"/><path d="M24.5,44.9c0.6,2,1.6,5.7,4,8c1.8,6.7,7,14.4,15.4,17.3c2,0.7,4.1,1.1,6.2,1.1c2.2,0,4.3-0.4,6.3-1.1   c8.4-3,13.6-10.7,15.4-17.3c2.4-2.2,3.4-6,4-8c0.9-3.2,1.8-7.7-0.6-10.9c-0.1-0.1-0.2-0.2-0.3-0.4C76,28.3,78,13.3,66.6,6.3   c0,0,2.5-2,2.3-4.9c0,0-13.6,1.5-20.2,0.2c-6.5-1.4-13.6,3.7-14.8,8.7c-0.1,0-0.1,0.1-0.2,0.1c-1.2,0.1-11.6,1.2-8.8,20   c0.1,1,0.2,2.1,0.4,3.2c-0.1,0.1-0.2,0.2-0.3,0.4C22.7,37.2,23.6,41.7,24.5,44.9z M30.5,36.1c0.1,0,0.2,0,0.3,0v0   c0,0,1.4-19.4,17.1-12.7c8.2,3.5,14.3,3.3,18.2,2.4c5,3.4,3.5,9.2,3.2,10.1c0,0,0,0.1,0,0.1c0.1,0,0.2,0,0.3,0   c1.6,0,3.3,1.3,1.5,7.5c-1.4,4.9-2.7,6.3-3.6,6.3c-0.9,5.8-5.5,13.2-12.8,15.8c-1.5,0.5-3.1,0.8-4.7,0.8c-1.6,0-3.2-0.3-4.7-0.8   c-7.4-2.6-11.9-10-12.8-15.8c-1-0.1-2.3-1.4-3.6-6.3C27.2,37.3,28.9,36.1,30.5,36.1z"/></g><text x="0" y="115" fill="#000000" font-size="5px" font-weight="bold" font-family="'Helvetica Neue', Helvetica, Arial-Unicode, Arial, Sans-serif">Created by Gregor Cresnar</text><text x="0" y="120" fill="#000000" font-size="5px" font-weight="bold" font-family="'Helvetica Neue', Helvetica, Arial-Unicode, Arial, Sans-serif">from the Noun Project</text></svg>